<svg width="47" height="35" viewBox="0 0 47 35" fill="none" xmlns="http://www.w3.org/2000/svg">
    <path d="M43.0833 0H13.7083C12.3571 0 11.2996 0.680556 10.5946 1.71111L0 17.5L10.5946 33.2694C11.2996 34.3 12.3571 35 13.7083 35H43.0833C45.2375 35 47 33.25 47 31.1111V3.88889C47 1.75 45.2375 0 43.0833 0ZM43.0833 31.1111H13.8454L4.7 17.5L13.8258 3.88889H43.0833V31.1111ZM20.3862 27.2222L27.4167 20.2417L34.4471 27.2222L37.2083 24.4806L30.1779 17.5L37.2083 10.5194L34.4471 7.77778L27.4167 14.7583L20.3862 7.77778L17.625 10.5194L24.6554 17.5L17.625 24.4806L20.3862 27.2222Z"
          fill="#F69F50"/>
</svg>
